<?xml version="1.0" encoding="utf-8"?>
<!-- Generator: Adobe Illustrator 26.3.1, SVG Export Plug-In . SVG Version: 6.00 Build 0)  -->
<svg version="1.1" id="Layer_1" xmlns="http://www.w3.org/2000/svg" xmlns:xlink="http://www.w3.org/1999/xlink" x="0px" y="0px"
	 viewBox="0 0 5915.7 2000" style="enable-background:new 0 0 5915.7 2000;" xml:space="preserve">
<style type="text/css">
	.st0{fill:#C5152F;}
	.st1{fill:#ED1C24;}
	.st2{fill:none;}
	.st3{fill:#39B54A;}
</style>
<path class="st0" d="M1237.8,1012.3c-29.5,2.2-58,8.2-85.1,17.6c-0.2,0.1-0.4,0.1-0.6,0.2c-1,0.4-2.1,0.7-3.1,1.1
	c-87.9,31.1-156.5,95.6-194.6,175.4c-0.3,0.7-0.7,1.4-1,2.1c-0.4,0.8-0.8,1.7-1.2,2.5c-11.4,24.7-20,51-25.2,78.4v0.1
	c-0.2,1.2-0.4,2.3-0.7,3.5c-6.5,35.7-7.3,72.8-1.9,110.3c0.1,0.4,0.1,0.8,0.2,1.2c0.2,1.3,0.4,2.5,0.6,3.8c0.1,0.9,0.3,1.9,0.5,2.8
	c0.1,0.5,0.2,1,0.3,1.5c0.2,1.1,0.4,2.3,0.6,3.4c0,0.2,0.1,0.3,0.1,0.5c2.5,13.7,6,27.5,10.3,41.2c48.8,155.4,204,256.2,365.8,237.3
	c2.5-0.3,4.9-0.6,7.3-0.9c1.9-0.3,3.8-0.5,5.7-0.8l0,0c12.8-2,25.4-4.6,37.7-8c0.3-0.1,0.6-0.2,1-0.3c1.7-0.5,3.3-0.9,5-1.4
	c14.4-4.2,28.3-9.2,41.7-15.1c1.5-0.7,2.9-1.4,4.4-2.1c115.1-52.7,196.5-167.5,201.2-299.8C1613.9,1163,1443.2,997.1,1237.8,1012.3z
	"/>
<g>
	<path class="st1" d="M2611.3,1312.2c-18.5-2.7-37.2,0.5-56.1,9.5c-22.5,11.7-46,19.8-70.3,24.3s-48.7,6.8-73,6.8
		c-44.2,0-85.2-6.5-123-19.6s-70.8-33.1-98.7-60.2c-27.9-27-49.8-60.8-65.6-101.4s-23.7-88.3-23.7-143.3c0-46.8,7-89.7,20.9-128.4
		c14-38.8,34.5-72.3,61.5-100.7s59.7-50.2,98-65.6c38.3-15.3,81.8-23,130.4-23c26.1,0,51.1,2.7,75,8.1s46.6,13.1,68.3,23
		c18.9,9,37.6,12.6,56.1,10.8s33.6-10.8,45.3-27c17.1-20.7,23.7-43.7,19.6-68.9c-4.1-25.2-17.8-43.7-41.2-55.4
		c-33.4-17.1-68.9-30.2-106.8-39.2c-37.9-9-76.6-13.5-116.3-13.5c-70.3,0-135.2,12-194.7,35.8c-59.5,23.9-111.1,57.2-154.8,100
		s-77.5,93.5-101.4,152.1s-35.8,122.6-35.8,192c0,80.2,13.1,150.7,39.2,211.6c26.1,60.8,62,111.5,107.5,152.1
		c45.5,40.6,97.3,71.2,155.5,91.9c58.1,20.7,119.6,31.1,184.5,31.1c26.1,0,51.8-2,77.1-6.1c25.2-4.1,50.2-9.9,75-17.6
		s48.9-17.3,72.3-29.1c22.5-10.8,36.3-28.2,41.2-52c4.9-23.9-1.6-47.1-19.6-69.6C2645.3,1324.4,2629.8,1314.9,2611.3,1312.2z"/>
	<path class="st1" d="M3452.7,555.2c-22.5,0-42.4,7.9-59.5,23.7s-25.7,35.4-25.7,58.8v310.9h-431.2v-311c0-23.4-8.3-43-25-58.8
		s-35.8-23.7-57.5-23.7c-25.2,0-46,7.9-62.2,23.7s-24.3,35.4-24.3,58.8V1419c0,23.4,7.7,43.1,23,58.8c15.3,15.8,35.6,23.7,60.8,23.7
		c22.5,0,42.4-7.9,59.5-23.7c17.1-15.8,25.7-35.4,25.7-58.8v-315h431.2v315c0,23.4,8.3,43.1,25,58.8c16.7,15.8,35.8,23.7,57.5,23.7
		c26.1,0,47.1-7.9,62.9-23.7c15.8-15.8,23.7-35.4,23.7-58.8V637.6c0-23.4-7.7-43-23-58.8C3498.2,563.1,3477.9,555.2,3452.7,555.2z"
		/>
	<path class="st1" d="M4226.9,710.6c23.4,0,43-7,58.8-21s23.7-32.2,23.7-54.8c0-23.4-7.9-42.6-23.7-57.5
		c-15.8-14.9-35.4-22.3-58.8-22.3H3774c-23.4,0-43,7.9-58.8,23.7s-23.7,35.4-23.7,58.8V1419c0,23.4,7.9,43.1,23.7,58.8
		c15.8,15.8,35.4,23.7,58.8,23.7h452.9c23.4,0,43-7.2,58.8-21.6s23.7-32.9,23.7-55.4c0-20.7-7.9-39-23.7-54.8
		c-15.8-15.8-35.4-23.7-58.8-23.7h-366.3v-250.1h305.5c23.4,0,43-7,58.8-20.9c15.8-14,23.7-32.2,23.7-54.8
		c0-23.4-7.9-42.6-23.7-57.5c-15.8-14.9-35.4-22.3-58.8-22.3h-305.5V710.6H4226.9z"/>
	<path class="st1" d="M5427.1,578.8c-16.7-15.8-35.8-23.7-57.5-23.7c-25.2,0-46,7.9-62.2,23.7s-24.3,35.4-24.3,58.8V1419
		c0,23.4,7.7,43.1,23,58.8c15.3,15.8,35.6,23.7,60.8,23.7c22.5,0,42.4-7.9,59.5-23.7c17.1-15.8,25.7-35.4,25.7-58.8V637.6
		C5452.1,614.2,5443.7,594.6,5427.1,578.8z"/>
	<path class="st1" d="M5154.7,1404.6c-0.4-1.6-0.9-3.2-1.4-4.8l-0.5-1.9l-54.5-193.1c-0.1-0.5-0.2-1-0.4-1.6
		c-1-4.1-2.2-8.2-3.5-12.2l-0.3-1.1l0,0c-2.1-6.5-4.5-12.8-7.2-19c-5.1-11.3-11.2-22.2-18.4-32.8c-6.2-9.2-13.1-18.1-20.8-26.7
		c-10.7-11.8-23.2-22.5-37.4-32.2c19.2-12.4,37.2-27.5,53.6-45.5c23.9-26.1,42.8-55.4,56.8-87.9s21-65.8,21-100
		c0-56.8-12.6-107-37.9-150.7c-25.2-43.7-58.4-77.9-99.4-102.7s-85-37.2-131.8-37.2h-389.3c-23.4,0-43,7.9-58.8,23.7
		s-23.7,35.4-23.7,58.8V1419c0,23.4,9.9,43.1,29.8,58.8c19.8,15.8,42.4,23.7,67.6,23.7c22.5,0,40.1-7.9,52.7-23.7
		c12.6-15.8,18.9-35.4,18.9-58.8v-262.3h252.8c20.7,0,38.7,2.5,54.1,7.4c15.3,5,27.9,12.2,37.9,21.6c3.8,3.6,7,7.8,10.1,11.9
		c2.8,3.7,4.9,7.9,7.2,12l6.4,20.8l62.3,216.7c7,22.4,19.7,39,38.3,49.7c18.5,10.8,39.2,12.6,62.1,5.5c20.4-6.3,36-19.4,46.8-39.3
		C5157.6,1444.7,5160,1425.2,5154.7,1404.6L5154.7,1404.6z M4951,934.4c-9.9,25.7-22.5,46-37.9,60.8c-15.3,14.9-31.1,22.3-47.3,22.3
		h-296.1V710.6h296.1c24.3,0,47.1,13.3,68.3,39.9c21.2,26.6,31.8,59.7,31.8,99.4C4965.8,880.5,4960.9,908.7,4951,934.4z"/>
</g>
<g>
	<path class="st2" d="M1343.4,967.5c-0.2-0.3-0.4-0.6-0.6-0.9C1343.1,966.9,1343.2,967.2,1343.4,967.5z"/>
	<path class="st3" d="M1241.1,371.1c-57.3-43.1-128.6-68.6-205.8-68.6S886.8,328,829.5,371.1c-83.3,62.6-137.2,162.2-137.2,274.4
		v111.7c0,16.1,16.5,26.6,31.3,20.3c26-11.2,53.2-20.2,81.2-26.8c14.5-3.4,24.7-16.4,24.7-31.3l0-73.9c0-116,96-209.6,212.8-205.7
		c111.8,3.7,198.7,99.2,198.7,211.1v184.6c0,10.7,4.8,20.7,12.8,27.7c34.2,30.2,64.1,65.1,89.1,103.4c-0.1-0.2-0.3-0.4-0.4-0.6
		c0.1,0.2,0.2,0.4,0.4,0.6c0.2,0.3,0.4,0.6,0.6,0.9c5,6.7,16.3,9.4,23.9,4.2c6.5-4.3,10.9-11.7,10.9-20.3V645.5
		C1378.3,533.3,1324.4,433.7,1241.1,371.1z"/>
</g>
<g>
	<path class="st2" d="M930.5,1563.4c3,4.9,6.1,9.7,9.3,14.4C936.6,1572.6,933.6,1567.8,930.5,1563.4z"/>
	<path class="st2" d="M845.7,1515.7c4.8,1.3,9.7,2.5,14.6,3.5C855.7,1518.1,850.9,1516.9,845.7,1515.7z"/>
	<path class="st2" d="M1246.7,966c-1.8,0.1-3.6,0.2-5.4,0.3C1243.2,966.2,1245,966.1,1246.7,966z"/>
	<path class="st1" d="M1260.4,933.4c-259.7-291.9-765.2-133.7-795.7,274.2c-25.1,302.6,262,543.5,549.6,480.4
		c9.6-2.9,25.3-10.7,9.2-23.2c-33.2-25.4-61-53.8-83.6-87.1c0,0,0,0,0,0c0,0,0,0,0,0c-3.2-4.7-6.3-9.5-9.3-14.4
		c-13.4-19.6-28.1-32.9-70.3-44.1c-4.9-1.1-9.7-2.2-14.6-3.5c-0.1,0-0.2,0-0.3-0.1c0.1,0,0.2,0,0.3,0.1
		c-127.2-34.7-219.2-155-209.8-295.2c12.9-210.8,253.2-335.4,431.5-225.9c7.3,4.4,15.5,6.7,23.8,6.8c6.3,0.1,12.7-1.2,18.7-3.8
		c40.7-17.6,85-28.6,131.4-31.3c-0.1,0-0.1,0-0.2,0c0.1,0,0.1,0,0.2,0c1.8-0.1,3.6-0.2,5.4-0.3
		C1265.3,964.4,1279.4,955.6,1260.4,933.4z"/>
</g>
</svg>
